<?xml version="1.0" encoding="UTF-8"?>
<svg width="317px" height="152px" viewBox="0 0 317 152" version="1.1" xmlns="http://www.w3.org/2000/svg" xmlns:xlink="http://www.w3.org/1999/xlink">
    <title>big-logo-white</title>
    <defs>
        <polygon id="path-1" points="0 0 37.2319263 0 37.2319263 51.4434475 0 51.4434475"></polygon>
        <polygon id="path-3" points="-9.86376886e-15 -9.86376886e-15 12.9073434 -9.86376886e-15 12.9073434 26.5056359 -9.86376886e-15 26.5056359"></polygon>
    </defs>
    <g id="Page-1" stroke="none" stroke-width="1" fill="none" fill-rule="evenodd">
        <g id="Extra-Small-Devices:-Phones---2-Col" transform="translate(-30.000000, -110.000000)">
            <g id="intro" transform="translate(0.000000, 110.000000)">
                <g id="big-logo-white" transform="translate(30.000000, 0.000000)">
                    <g id="Group-3" transform="translate(0.000000, 61.600352)">
                        <mask id="mask-2" fill="white">
                            <use xlink:href="#path-1"></use>
                        </mask>
                        <g id="Clip-2"></g>
                        <path d="M17.4562938,35.7934018 C18.1219367,35.939163 18.7875796,36.0821478 19.4532224,36.220968 C21.3869879,36.6249348 22.9306686,35.3047546 22.9320568,33.3723774 C22.9313627,31.4386119 21.3862938,29.5388574 19.4532224,29.1355847 C18.7875796,28.9967645 18.1219367,28.8537797 17.4562938,28.7080185 L17.4562938,35.7934018 Z M17.4562938,25.7449012 C18.1219367,25.8906624 18.7875796,26.0336472 19.4532224,26.1724674 C21.3869879,26.5764342 22.9306686,25.2548659 22.9320568,23.3231827 C22.9313627,21.32556 21.3862938,19.4903568 19.4532224,19.08639 C18.7875796,18.9475698 18.1219367,18.8052791 17.4562938,18.6588238 L17.4562938,25.7449012 Z M-0.000347050514,45.090885 L-0.000347050514,0 C8.15950463,2.60218475 16.3186622,4.60119571 24.4778198,6.09073651 C31.6923059,7.40675206 37.2326202,12.3202932 37.2319263,19.546579 L37.2319263,21.0930361 C37.2326202,25.3416285 35.300243,28.4081668 32.2073288,29.8970135 C35.300243,32.2736155 37.2319263,35.7767433 37.2319263,40.0308885 L37.2319263,41.5773456 C37.2319263,48.780032 31.6916117,52.4983312 24.4778198,51.1816215 C16.3186622,49.6920807 8.15950463,47.6930698 -0.000347050514,45.090885 L-0.000347050514,45.090885 Z" id="Fill-1" fill="#000000" mask="url(#mask-2)"></path>
                    </g>
                    <path d="M63.3849588,71.3020099 C69.3965677,71.378361 75.4088708,71.2582816 81.4204798,70.9792529 C81.4204798,80.0407418 81.4204798,89.1015367 81.4204798,98.1630256 C81.1636625,111.990906 73.2411933,117.283427 61.3234787,117.067561 C49.4710096,116.826708 41.4194376,111.155209 41.1612321,97.238483 C41.1612321,88.1776882 41.1612321,79.1161993 41.1612321,70.0554045 C47.1950523,70.6745426 53.2288725,71.0493571 59.2619987,71.2187178 L59.2619987,100.269622 C59.2619987,101.428771 60.1629418,102.357478 61.3234787,102.380383 C62.4826274,102.404677 63.3849588,101.512757 63.3849588,100.352914 C63.3849588,90.6695109 63.3849588,80.9861074 63.3849588,71.3020099" id="Fill-4" fill="#000000"></path>
                    <path d="M103.128906,91.0524464 C107.187315,90.637374 108.603975,88.8542285 108.604669,86.6032588 C108.603975,84.4092055 107.188703,82.907865 103.128906,83.3229374 L103.128906,91.0524464 Z M125.03057,111.780385 C114.273392,113.283808 105.254243,113.261597 103.128906,95.3038152 L103.128906,114.435322 C97.310257,115.023919 91.4916081,115.505626 85.6729592,115.846429 L85.6729592,70.7555442 C93.8321168,70.2780027 101.991274,69.5228208 110.150432,68.5843962 C117.300367,67.7598041 122.840681,71.2997194 122.840681,78.5197583 L122.840681,80.0655213 C122.839987,84.8228897 118.65317,90.7755001 110.794558,93.7608286 C116.270321,93.5755036 121.422633,90.8289459 125.03057,85.6925983 C125.03057,94.388296 125.03057,103.084688 125.03057,111.780385 L125.03057,111.780385 Z" id="Fill-6" fill="#000000"></path>
                    <path d="M152.728671,79.1271661 C157.967746,78.2949389 163.20682,77.4536885 168.446589,76.6284024 L168.446589,105.099732 C165.225266,105.60712 162.004637,106.120755 158.784009,106.63439 C157.753269,105.618226 156.722529,104.601368 155.692483,103.58451 C153.179837,106.174895 150.02376,108.674353 146.222862,109.269891 C134.305842,111.135635 129.088978,98.1906508 129.345796,88.0477525 C129.603307,69.8553646 140.554833,63.7625457 154.983111,61.4414719 C158.847866,60.8258043 162.649457,60.4752833 166.44966,60.3246634 L166.44966,74.2386125 C164.38818,72.5026659 160.45818,71.2609191 157.753269,71.69265 C152.535711,72.5269594 147.447951,75.9051491 147.382705,85.8988157 C147.382011,90.1494904 149.379634,94.152371 153.244388,93.5387857 C156.400466,93.0362566 158.332843,89.8940612 158.976969,86.4416027 C156.657283,87.1981728 154.33968,88.662726 152.728671,90.593715 L152.728671,79.1271661 Z" id="Fill-8" fill="#000000"></path>
                    <path d="M172.697611,59.3432045 C182.14502,57.8730985 191.593123,56.4758732 201.040532,55.2965955 L201.040532,69.2105447 C198.786786,67.3003787 194.920643,66.3834712 190.798377,66.4452462 C190.798377,68.0985949 190.798377,69.7519435 190.798377,71.4052921 C193.116675,70.9520442 195.435666,69.9969612 196.66006,68.6129237 C196.66006,71.2754953 196.66006,73.9373727 196.66006,76.5999442 C195.435666,75.5365815 193.117369,75.203413 190.798377,75.4630068 C190.798377,77.2454582 190.798377,79.0272155 190.798377,80.809667 C194.921337,79.7178461 198.785398,77.8639022 201.040532,75.3297394 L201.040532,100.387481 C191.593123,101.566758 182.14502,102.963984 172.697611,104.43409 L172.697611,59.3432045 Z" id="Fill-10" fill="#000000"></path>
                    <path d="M222.748819,74.7414887 C226.806534,74.4194259 228.223194,72.7320663 228.223888,70.4734615 C228.223888,68.2870433 226.806534,66.6892227 222.748819,67.0119797 C222.748819,69.5884827 222.748819,72.1649857 222.748819,74.7414887 L222.748819,74.7414887 Z M244.649789,97.0138025 C233.891917,97.202598 224.874851,96.9943677 222.748819,78.9928575 C222.748819,85.3702578 222.748819,91.7469639 222.748819,98.1243641 C216.929476,98.5935764 211.110827,99.1870328 205.292179,99.8714164 L205.292179,54.7805314 C213.451336,53.8212838 221.610494,53.039726 229.769651,52.5302559 C236.919586,52.0783961 242.4599,56.2881188 242.459206,63.4998285 C242.459206,64.0155456 242.459206,64.5305685 242.459206,65.0455915 C242.459206,69.8265594 238.273083,75.2134774 230.413777,77.7413934 C235.88954,77.85592 241.041852,75.6236911 244.649789,70.9253213 L244.649789,97.0138025 Z" id="Fill-12" fill="#000000"></path>
                    <path d="M277.308284,68.2607369 C280.914832,71.1079393 282.977007,75.661242 282.977007,82.9354208 C282.977007,96.8188295 275.568866,98.6561149 263.780949,98.0279535 C258.821597,97.7725243 254.118368,97.467814 248.900811,96.0018726 C248.900811,87.6275437 248.900811,79.2539089 248.900811,70.8802741 C251.736213,74.9581177 270.673372,82.1073582 270.544963,75.8646136 C270.479718,72.5711042 267.452743,72.7848874 265.0692,73.1048679 C263.072271,73.4408128 260.624177,73.9759647 258.563391,73.9121074 C252.251236,73.7260883 249.029914,68.8958393 249.093771,62.827314 C248.900117,51.1823811 256.374197,51.1372645 265.520366,51.6814397 C270.673372,51.985456 275.826378,52.7121797 280.915527,53.7422257 L280.915527,67.7207263 C278.081512,62.9800162 259.272068,55.049912 259.33662,61.8278085 C259.401171,64.2772911 260.818525,65.1622699 262.557249,65.1796224 C267.517294,65.2899845 272.090032,64.6007421 277.308284,68.2607369" id="Fill-14" fill="#000000"></path>
                    <path d="M297.727972,73.5005055 C300.00393,73.9794352 302.279887,74.4993169 304.555844,75.0629269 C304.555844,73.3019926 304.555844,71.5410583 304.555844,69.7808181 C304.55515,68.6855267 304.234475,65.0623193 303.718758,61.9742639 C304.920941,65.4440749 306.123124,68.9256856 307.325307,72.4197902 C308.52749,69.5587058 309.730367,66.7094211 310.93255,63.8726302 C310.416833,66.6899862 310.096158,70.1431388 310.095464,71.2384303 L310.095464,76.5205391 C312.349904,77.1493946 314.604345,77.8226726 316.858785,78.5417613 L316.858785,61.6001434 C314.36835,60.8060918 311.877222,60.0675683 309.386787,59.3824906 C308.699627,61.0191808 308.012467,62.6593416 307.325307,64.3036669 C306.638147,62.2977149 305.950987,60.2959276 305.263827,58.2983048 C302.751875,57.6666729 300.239924,57.0877926 297.727972,56.5588876 L297.727972,73.5005055 Z M286.262117,59.7038594 C286.262117,57.9651363 286.262117,56.2257191 286.262117,54.486302 C289.353643,54.9457969 293.734115,55.7245782 296.890192,56.3846683 C296.889498,58.1240855 296.890192,59.8635026 296.890192,61.6022257 C296.375169,61.0455567 295.731044,60.5277573 294.957815,60.1189318 C295.602635,62.7579039 296.053106,67.1654454 296.053106,68.5821056 C296.053106,70.1063515 296.053106,71.6312914 296.053106,73.1555373 C294.550378,72.8529093 293.046955,72.5676337 291.544226,72.2997107 C290.06232,72.0352582 288.580415,71.7881583 287.099203,71.5570226 C287.098509,70.0320827 287.098509,68.5078368 287.099203,66.9828969 C287.099203,65.5662367 287.485123,61.3100092 288.129943,58.9014786 C287.356715,59.034746 286.711895,59.3214097 286.262117,59.7038594 L286.262117,59.7038594 Z" id="Fill-16" fill="#000000"></path>
                    <path d="M66.3266283,43.2958664 C65.1029282,47.0252712 62.9123454,54.8762479 67.0998569,54.8915182 C69.7409113,54.8901299 71.8669427,50.4714828 72.8324372,48.1330564 C73.3481543,46.8343934 73.4772571,45.9938371 74.1206887,45.979261 C74.3788943,45.97232 74.7002631,46.0292362 75.0868774,46.2770303 C79.2736948,48.473166 80.3051289,51.3689554 79.4680431,54.759639 C77.921586,60.5810643 69.4827057,63.4067496 64.2005969,63.251965 C55.8915135,63.0714988 53.3157046,56.5191851 54.6678134,49.2692998 C56.1497191,39.4644287 64.1374337,18.4644021 76.3112716,18.0271185 C82.4304662,17.8424876 88.1630466,21.3775442 85.3942776,29.3458239 C84.6210491,31.7106261 83.074592,35.7211419 82.9454892,38.0456862 C82.8163864,40.0481677 83.1391434,40.3570426 81.3351748,40.6360713 C71.2866743,41.9930388 73.4772571,34.7556474 75.1521229,28.6898985 C75.5387371,27.2614386 75.345083,26.7519684 74.8293659,26.7658504 C71.7371458,26.85886 67.1651024,40.7290808 66.3266283,43.2958664" id="Fill-18" fill="#000000"></path>
                    <path d="M96.1513165,53.4992209 C100.531094,53.1237122 103.816274,42.2769955 104.911566,38.8134314 C107.038291,32.0167941 108.77632,23.9686927 105.233628,24.3504483 C101.625691,24.726651 100.531094,30.1038517 102.012306,31.4434667 C102.142797,31.5600756 102.205266,31.6822374 102.142102,31.816893 C102.076857,34.3357856 99.8862742,35.6497189 97.5679767,35.4678644 C96.3435825,38.8682653 90.4818993,53.9656568 96.1513165,53.4992209 M83.4610675,56.5060666 C80.8207071,47.3668383 87.9699477,27.7640371 93.3811593,24.5468789 C96.086071,18.60468 101.433425,16.4009092 107.101454,15.7762183 C117.149955,14.6448336 119.598743,20.4981876 118.052286,29.2862007 C115.861703,42.1541396 108.196052,60.8046342 93.7032222,62.0755332 C88.7431763,62.4718649 84.8784217,61.5209465 83.4610675,56.5060666" id="Fill-20" fill="#000000"></path>
                    <path d="M144.139657,54.9633576 C144.011248,55.6276123 143.624634,55.8816533 143.173468,55.9510634 C142.852099,56.0010386 142.464791,55.996874 142.142728,55.8531951 C140.33876,55.4228525 138.149565,55.5005918 135.766022,55.8573597 C130.484607,56.6514113 124.36333,58.7406554 119.790593,59.3361941 C116.440861,59.7734777 115.281713,56.4959327 115.088752,53.6869058 C115.024201,52.6638009 115.024201,52.2133293 115.410815,51.1346963 C118.760547,40.7967556 120.887272,28.8554416 123.719899,18.5508177 C124.621536,15.2080272 128.357882,13.0174443 131.836716,12.506586 C133.189519,12.3094613 134.540934,12.3670717 135.636919,12.7821441 C136.666965,13.1437707 136.345596,14.0933009 135.766022,14.8887407 C135.186448,15.687651 130.097299,37.2457348 127.391693,48.0584406 C130.613016,47.4740075 133.25407,46.6362276 136.603108,46.1336984 C141.949768,45.3278471 145.234254,49.8304805 144.139657,54.9633576 Z" id="Fill-22" fill="#000000"></path>
                    <path d="M171.194882,18.0223986 C169.391608,22.8776353 166.62145,29.4334195 164.109499,35.3082906 C165.978019,33.8520666 168.360173,32.7657985 170.679859,32.3382323 C171.129637,26.4709963 171.38923,20.697464 171.194882,18.0223986 M146.459204,54.2794599 C144.977992,53.9962666 145.364606,53.0980999 146.073284,51.7633436 C149.615281,44.7078067 161.27479,21.0708903 164.817482,12.9082622 C165.655262,10.9717204 166.556899,9.60503545 167.65219,8.59442436 C169.842773,6.63775356 173.772079,5.89367726 176.413134,5.61881325 C178.281653,5.46194642 178.023448,7.04796727 178.087999,8.58401284 C178.410062,20.0644438 180.922014,31.8599967 180.664502,43.3008639 C180.471542,50.0933366 175.510802,50.7721674 169.391608,51.7362737 C167.45923,52.04029 167.65219,50.3355778 168.103356,49.0403853 C168.746788,47.3287322 169.32775,44.1455849 169.842773,40.3932747 C166.942819,40.4619907 164.174744,41.6107279 163.207861,43.3744386 C162.885105,43.9408251 162.692839,44.1011624 162.177121,44.1185149 C161.661404,44.1358675 161.08183,43.9068141 160.759767,43.1203977 C158.763533,47.8180734 157.732098,53.524972 151.870415,54.5203129 C150.066447,54.8069766 148.198621,54.6508039 146.459204,54.2794599" id="Fill-24" fill="#000000"></path>
                    <path d="M190.326736,9.49564513 C190.498179,8.76336855 190.670316,8.03039786 190.841759,7.29812128 C191.872499,4.19063098 193.868733,2.94957834 195.672702,2.71011349 C197.927142,2.40887364 199.987928,3.76028834 199.666559,4.96038902 C199.344496,6.28959249 199.021739,7.61879595 198.636513,8.95702273 C197.991693,11.5536547 197.09075,15.595405 194.255347,16.749695 C193.031647,17.2362598 191.163822,17.4951595 191.421333,15.6557917 C191.614987,14.5341245 191.807947,13.5408659 192.000907,12.2262386 C190.712656,11.7598027 189.939427,10.9671393 190.326736,9.49564513" id="Fill-26" fill="#000000"></path>
                    <path d="M197.862174,38.2372581 C198.312646,38.1789536 198.892914,38.2323994 199.73,38.2553047 C204.175023,38.2025531 210.938343,36.1792486 217.509398,33.5125124 C218.411035,33.1717088 218.152829,32.6802853 217.444846,32.6809794 C209.843746,32.2693775 199.600897,27.3801298 203.723857,17.7925123 C207.524754,9.02809868 213.321886,0.689168938 220.600924,0.0623957104 C226.720812,-0.534531173 232.453393,3.15183938 229.68393,11.1090136 C228.910701,13.4106526 227.364244,17.4447677 227.235141,19.8380281 C227.106039,21.7801228 227.428101,22.1410553 225.625521,22.399955 C215.57702,24.165748 217.766215,16.9568147 219.441775,10.727258 C219.827695,9.34044414 219.634735,8.77752821 219.119018,8.82333888 C217.186641,8.99339363 214.416484,15.5144728 213.837603,16.9915198 C210.680832,24.7258875 226.333504,26.8956473 227.235141,30.466103 C228.00837,33.5722051 227.687001,36.6123676 224.787741,38.8244676 C220.278167,42.242221 212.613209,45.8598756 206.494014,46.5810466 C201.211906,47.1911614 197.088946,45.6190225 197.025088,39.6990349 C196.960537,38.6120727 197.218742,38.3205502 197.862174,38.2372581" id="Fill-28" fill="#000000"></path>
                    <path d="M29.3969138,141.185837 C25.6918025,141.261494 26.107569,136.270907 27.5061826,136.270907 C28.4140667,136.422221 29.6995418,136.53536 30.9093599,136.497878 C33.5177916,136.459703 35.6736693,136.270907 38.357758,136.270907 C42.0253878,136.232732 41.6471028,141.185837 40.2484892,141.185837 C39.3406051,141.072698 38.0558241,140.95956 36.8078304,140.95956 C34.2368802,141.034523 32.0810024,141.185837 29.3969138,141.185837" id="Fill-30" fill="#000000"></path>
                    <path d="M73.9766628,129.388826 C73.4470637,129.388826 73.1819171,130.749958 74.9595098,131.54401 C74.8081958,129.919119 74.3167723,129.388826 73.9766628,129.388826 M72.1615886,130.788134 C69.3261859,132.451894 68.0400167,138.274707 70.4221714,139.824635 C70.7622809,140.051606 71.140566,140.164745 71.443194,140.164745 C73.1451298,140.164745 74.3931234,137.29186 74.8463714,134.531421 C73.5227207,133.887989 72.5016981,132.717041 72.1615886,130.788134 M72.0484501,126.364628 C72.3885596,126.364628 73.2582682,126.402109 73.4852393,127.15868 C73.9384872,126.628386 74.5812248,126.364628 75.4516275,126.364628 C78.0975406,126.364628 79.0429062,128.63295 79.1567388,131.355214 C81.1606084,130.599338 82.937507,128.898097 83.3539677,125.986343 C83.4296247,125.569882 83.6184202,125.419262 83.9203541,125.419262 C84.6012672,125.419262 85.7736038,126.440285 86.1137133,127.120504 C87.7774735,130.523681 83.2776166,134.228793 78.9304618,134.947187 C78.0218836,140.505548 75.2246564,145.231682 68.8722438,145.269164 C57.6798648,145.269164 64.9394674,126.364628 72.0484501,126.364628 M64.3349054,151.924204 C60.6297941,151.999861 61.0455607,147.008581 62.4448683,147.008581 C63.3145769,147.160589 64.5993579,147.236246 65.8473516,147.236246 C68.4183018,147.19807 70.5741796,147.008581 73.2582682,147.008581 C76.9640736,146.932924 76.547613,151.924204 75.1483053,151.924204 C74.2411153,151.77289 72.9938157,151.697927 71.7458221,151.697927 C69.1748719,151.735409 67.0196882,151.924204 64.3349054,151.924204 M49.6643861,133.738063 C48.0769771,139.10624 47.0559544,147.34869 46.5638368,149.050626 C45.9592748,151.130153 43.803397,151.924204 41.6863889,151.924204 C40.9305129,151.924204 40.2121183,151.811066 39.5693808,151.659752 C38.6614966,151.395299 38.8884677,150.903182 39.1917898,150.146611 C41.8377029,144.097521 42.7830685,136.043867 44.6363183,129.275688 C45.5809898,125.986343 49.0598241,125.457438 52.0090594,125.457438 C53.7109951,125.457438 54.3912141,126.023824 54.239206,128.103351 C54.0511046,130.939448 54.3155571,138.501679 54.617491,143.11398 C55.7898277,138.727955 56.2055942,132.149266 57.3397553,128.141527 C57.8318729,126.326452 60.2522032,125.419262 62.4066928,125.419262 C63.3520584,125.419262 64.2592484,125.608058 64.9394674,125.948167 C65.5454176,126.250795 65.355928,126.742219 65.0158185,127.196855 C63.7678249,128.82244 60.2889905,144.173178 59.117348,148.407194 C58.1719824,151.924204 55.2602286,151.886029 52.2360304,151.886029 C51.3663218,151.886029 50.0044956,151.77289 50.1565037,149.882159 C50.4584377,145.53431 50.0426712,138.539854 49.6643861,133.738063" id="Fill-32" fill="#000000"></path>
                    <g id="Group-36" transform="translate(83.469774, 125.494364)">
                        <mask id="mask-4" fill="white">
                            <use xlink:href="#path-3"></use>
                        </mask>
                        <g id="Clip-35"></g>
                        <path d="M2.64824279,26.5056359 C2.00550523,26.5056359 1.32528623,26.3918034 0.64437312,26.2030079 C-0.262816922,25.9760368 -0.0358458865,25.4846133 0.26608806,24.7280432 C2.64824279,19.3216903 4.12320747,12.3265401 5.74879207,6.08796011 C4.99222195,6.3524126 4.38765996,6.65434655 4.04755046,6.91949314 C3.78309797,7.10898272 3.36663735,7.22281529 3.10218486,6.80635467 C0.304263617,2.19335925 7.63882917,0.0381755565 10.928868,-9.86376886e-15 C12.2518246,-9.86376886e-15 13.2728472,1.85255564 12.7821178,3.02558638 C11.0427006,7.44909222 7.45003369,20.9854505 6.73163913,23.6313636 C6.16455859,25.7108902 4.50079843,26.5056359 2.64824279,26.5056359" id="Fill-34" fill="#000000" mask="url(#mask-4)"></path>
                    </g>
                    <path d="M99.0117763,146.441778 C99.2769229,146.441778 99.6170324,146.517435 100.108456,146.593092 C102.717582,146.89572 106.68784,146.177325 110.544265,144.966813 C111.07317,144.816193 110.92255,144.513565 110.506783,144.476084 C106.045102,143.832652 100.032799,140.203198 102.452435,134.871808 C104.68397,129.99436 108.086453,125.494503 112.358645,125.494503 C115.950618,125.457716 119.316314,127.801695 117.690035,132.376515 C117.236787,133.700165 116.328903,136.005969 116.25394,137.404582 C116.177589,138.539438 116.367078,138.765715 115.308574,138.842066 C109.40941,139.408452 110.695579,135.249399 111.678426,131.695601 C111.905397,130.90155 111.791564,130.56144 111.48963,130.56144 C110.354775,130.56144 108.729191,134.228376 108.389081,135.061297 C106.536526,139.446628 115.724341,141.56433 116.25394,143.643857 C116.707188,145.497106 116.518392,147.273311 114.817151,148.445647 C112.169849,150.260722 107.670687,151.961963 104.078714,151.961963 C100.978164,151.961963 98.5585283,150.71397 98.5203527,147.236523 C98.4828713,146.593092 98.6334912,146.441778 99.0117763,146.441778" id="Fill-37" fill="#000000"></path>
                    <path d="M115.687831,150.14682 C118.485058,143.75762 119.846884,135.324986 121.850754,128.368012 C122.380353,126.477975 124.573018,125.494433 126.614369,125.494433 C127.409115,125.494433 128.202473,125.645748 128.845904,125.985857 C129.337328,126.251004 129.299152,126.628595 129.072181,127.00688 C127.597911,129.426516 124.421704,144.476014 123.3632,148.445578 C122.682287,150.941565 120.564585,151.961894 118.296957,151.961894 C117.540387,151.961894 116.783817,151.848061 116.065422,151.65996 C115.158232,151.395507 115.347722,150.90339 115.687831,150.14682" id="Fill-39" fill="#000000"></path>
                    <path d="M134.290919,133.775128 C132.702815,139.144 131.644311,147.386449 131.190369,149.088385 C130.585807,151.167912 128.392448,151.961963 126.27544,151.961963 C125.557045,151.961963 124.838651,151.848131 124.195913,151.697511 C123.288029,151.432364 123.477519,150.940941 123.817628,150.185065 C126.464235,144.135974 127.409601,136.081626 129.262157,129.313447 C130.131865,126.024102 133.723838,125.494503 136.635592,125.494503 C138.298658,125.494503 139.017747,126.062278 138.866433,128.141804 C138.676943,130.977901 138.941395,138.539438 139.206542,143.152433 C140.41636,138.765715 140.794645,132.187025 141.966982,128.179286 C142.42023,126.364211 144.839866,125.457716 146.995744,125.457716 C147.978591,125.457716 148.885781,125.645817 149.566694,125.985926 C150.171256,126.288554 149.944979,126.780672 149.641657,127.23392 C148.356876,128.860199 144.878042,144.210937 143.743186,148.445647 C142.760339,151.961963 139.887455,151.923788 136.861869,151.923788 C135.99216,151.923788 134.631028,151.810649 134.744861,149.920612 C135.047489,145.572069 134.631028,138.577613 134.290919,133.775128" id="Fill-41" fill="#000000"></path>
                    <path d="M151.799339,140.240957 C151.080945,142.433622 149.79547,147.046617 152.252587,147.046617 C153.803209,147.046617 155.051203,144.476361 155.618283,143.114535 C155.920217,142.358659 155.996568,141.866541 156.374159,141.866541 C156.526167,141.866541 156.714269,141.904023 156.94124,142.056031 C159.399052,143.417163 160.003614,145.15658 159.51219,147.122274 C158.605694,150.487276 153.651895,151.999722 150.551346,151.962241 C145.673898,151.924065 144.161452,148.218954 144.956197,143.907893 C145.825906,138.123255 150.51317,125.532956 157.659634,125.494781 C161.251607,125.494781 164.617303,127.801278 162.991024,132.376792 C162.537776,133.737924 161.629892,136.043728 161.554235,137.40486 C161.478578,138.577891 161.668068,138.765992 160.60887,138.879825 C154.710399,139.446211 155.996568,135.287158 156.979415,131.733361 C157.206386,130.901828 157.092554,130.599199 156.789926,130.599199 C154.975546,130.599199 152.290763,138.727817 151.799339,140.240957" id="Fill-43" fill="#000000"></path>
                    <path d="M181.405733,131.279974 C181.292594,131.658259 181.065623,131.808879 180.801171,131.808879 C180.611681,131.808879 180.422886,131.733222 180.23409,131.658259 C179.174892,131.241798 177.397993,131.014827 175.545438,131.014827 C173.616531,131.014827 171.57518,131.241798 170.138391,131.733222 C169.684449,133.132529 169.193025,134.682457 168.739777,136.346217 C169.495653,136.27056 170.214048,136.194903 170.856785,136.194903 C174.032992,136.194903 175.961204,137.404721 174.940876,141.072351 C174.789562,141.563775 174.373101,141.526293 174.071167,141.450636 C173.390254,141.18549 171.877114,140.997388 170.327186,140.997388 C169.306164,140.997388 168.24766,141.072351 167.377951,141.300016 C166.924703,143.076915 166.508242,144.702499 166.168133,145.912318 C168.134521,145.874142 169.722624,145.572208 171.689013,145.572208 C174.826349,145.572208 176.792737,148.559619 176.112518,151.432503 C176.036861,151.810788 175.80989,151.962102 175.545438,151.962102 C175.355948,151.962102 175.129671,151.885751 174.940876,151.810788 C173.881678,151.35754 172.596203,151.243708 171.196895,151.243708 C168.134521,151.243708 164.504373,151.962102 161.820284,151.962102 C160.00521,151.962102 159.513786,148.785896 159.892071,147.613559 C161.668276,142.206512 163.67284,133.548296 164.845176,129.200447 C165.412257,127.196577 166.508242,126.478183 168.021383,126.175555 C170.175872,125.759788 175.469781,125.494642 177.662446,125.494642 C180.801171,125.532817 182.351098,127.914278 181.405733,131.279974" id="Fill-45" fill="#000000"></path>
                    <path d="M201.2961,151.432642 C201.220443,151.810927 200.993472,151.962241 200.72902,151.962241 C200.53953,151.962241 200.313253,151.88589 200.124458,151.810927 C198.952121,151.319503 197.137047,151.167495 195.170659,151.167495 C191.276058,151.167495 186.890033,151.848408 186.436785,151.962241 C185.340106,151.962241 184.810507,150.374138 184.772917,149.126144 C184.735544,146.782165 194.452958,138.918 197.930404,135.099056 C199.973144,132.867522 199.027084,130.447885 197.288361,130.447885 C196.1542,130.447885 194.679235,131.50639 193.506898,134.342486 C193.166789,135.099056 193.091132,135.589786 192.713541,135.589786 C192.599708,135.589786 192.410219,135.552304 192.145766,135.40099 C189.72613,134.039858 189.120874,132.301135 189.612992,130.334747 C190.4827,126.969051 195.473287,125.494781 198.573836,125.494781 C203.413802,125.532956 205.039387,129.540695 204.283511,133.434602 C203.29997,138.237087 197.023908,142.056031 193.96084,145.874281 C197.438981,145.799318 202.846028,145.194062 201.2961,151.432642" id="Fill-47" fill="#000000"></path>
                    <path d="M208.178806,138.917792 C207.195959,143.001188 207.23344,147.008234 209.388624,147.046409 C211.392494,147.084585 213.510196,143.001188 214.5687,138.842135 C215.627204,134.682388 215.627204,130.485853 213.397057,130.447677 C211.354318,130.447677 209.199828,134.720563 208.178806,138.917792 M214.681838,125.494572 C225.911699,125.494572 221.601332,151.962033 207.838696,151.962033 C196.835113,151.962033 201.675079,125.494572 214.681838,125.494572" id="Fill-49" fill="#000000"></path>
                    <path d="M233.626007,151.432642 C233.55035,151.810927 233.323379,151.962241 233.058927,151.962241 C232.869437,151.962241 232.64316,151.88589 232.454365,151.810927 C231.282028,151.319503 229.466954,151.167495 227.500566,151.167495 C223.605965,151.167495 219.21994,151.848408 218.766692,151.962241 C217.670013,151.962241 217.140414,150.374138 217.102824,149.126144 C217.065451,146.782165 226.782865,138.918 230.260311,135.099056 C232.303051,132.867522 231.356991,130.447885 229.618268,130.447885 C228.484107,130.447885 227.009142,131.50639 225.836805,134.342486 C225.496696,135.099056 225.421039,135.589786 225.043448,135.589786 C224.929615,135.589786 224.740126,135.552304 224.475673,135.40099 C222.056037,134.039858 221.450781,132.301135 221.942899,130.334747 C222.812607,126.969051 227.803194,125.494781 230.903743,125.494781 C235.743709,125.532956 237.369294,129.540695 236.613418,133.434602 C235.629877,138.237087 229.353815,142.056031 226.290747,145.874281 C229.768888,145.799318 235.175935,145.194062 233.626007,151.432642" id="Fill-51" fill="#000000"></path>
                    <path d="M240.508713,138.917792 C239.525866,143.001188 239.563347,147.008234 241.718531,147.046409 C243.722401,147.084585 245.840103,143.001188 246.898607,138.842135 C247.957111,134.682388 247.957111,130.485853 245.726964,130.447677 C243.684225,130.447677 241.529736,134.720563 240.508713,138.917792 M247.011745,125.494572 C258.241606,125.494572 253.931239,151.962033 240.168603,151.962033 C229.16502,151.962033 234.004986,125.494572 247.011745,125.494572" id="Fill-53" fill="#000000"></path>
                    <path d="M256.012084,141.185837 C252.306279,141.261494 252.722739,136.270907 254.121353,136.270907 C255.029237,136.422221 256.314712,136.53536 257.52453,136.497878 C260.132962,136.459703 262.28884,136.270907 264.972928,136.270907 C268.640558,136.232732 268.262273,141.185837 266.86366,141.185837 C265.955775,141.072698 264.670994,140.95956 263.423001,140.95956 C260.852051,141.034523 258.696173,141.185837 256.012084,141.185837" id="Fill-55" fill="#000000"></path>
                </g>
            </g>
        </g>
    </g>
</svg>