<?xml version="1.0" encoding="UTF-8"?>
<svg width="100px" height="38px" viewBox="0 0 100 38" version="1.1" xmlns="http://www.w3.org/2000/svg" xmlns:xlink="http://www.w3.org/1999/xlink">
    <title>logo-white</title>
    <defs>
        <polygon id="path-1" points="-1.1451095e-14 0 10.5341874 0 10.5341874 15.1578809 -1.1451095e-14 15.1578809"></polygon>
    </defs>
    <g id="Page-1" stroke="none" stroke-width="1" fill="none" fill-rule="evenodd">
        <g id="Extra-Small-Devices:-Phones---2-Col" transform="translate(-138.000000, -10.000000)">
            <g id="header-sticky" transform="translate(-5.000000, 0.000000)">
                <g id="nav" transform="translate(5.000000, 0.000000)">
                    <g id="logo-white" transform="translate(138.000000, 10.000000)">
                        <path d="M5.50763736,31.6124291 C5.71795095,31.6596744 5.92745874,31.7060908 6.13777232,31.7508496 C6.74937389,31.8818103 7.2336592,31.4549446 7.2360766,30.8266647 C7.2320476,30.2000424 6.75098549,29.5825377 6.13777232,29.451577 C5.92745874,29.4068182 5.71795095,29.3604018 5.50763736,29.3131564 C5.50763736,30.0790281 5.50763736,30.8457286 5.50763736,31.6124291 M5.50763736,28.3508437 C5.71795095,28.3989179 5.92745874,28.4445055 6.13777232,28.4900931 C6.74937389,28.6210538 7.2336592,28.1925304 7.2360766,27.5659082 C7.2320476,26.9177354 6.75098549,26.3201235 6.13777232,26.1899916 C5.92745874,26.1452329 5.71795095,26.0988164 5.50763736,26.0515711 C5.50763736,26.8182716 5.50763736,27.5849721 5.50763736,28.3508437 M0,34.630328 L0,19.9958805 C2.57452837,20.8396654 5.14825093,21.4886671 7.7235851,21.9718956 C10.0007736,22.400419 11.748552,23.995156 11.7469475,26.3400162 L11.7469475,26.8414798 C11.7477462,28.2207118 11.1369504,29.2153503 10.1619334,29.6985788 C11.1369504,30.4702525 11.7493578,31.6074559 11.7469475,32.9883456 L11.7469475,33.4898092 C11.7461346,35.8280385 9.99916197,37.0332088 7.7235851,36.607172 C5.14905673,36.1231146 2.57452837,35.4749418 0,34.630328" id="Fill-1" fill="#FFFFFF"></path>
                        <path d="M20.0025141,23.1446572 C21.8993654,23.1695232 23.7970224,23.1305665 25.6930679,23.0402202 L25.6930679,31.8626635 C25.612488,36.3509697 23.1120931,38.0683788 19.3522342,37.9979252 C15.6141318,37.9208407 13.0742528,36.0791018 12.9912555,31.5626142 L12.9912555,22.7401709 C14.8953589,22.9407563 16.7978508,23.0625996 18.7019542,23.1173047 L18.7019542,32.5464775 C18.7019542,32.9236112 18.9872071,33.2228316 19.3522342,33.2311203 C19.7172612,33.2377512 20.0049315,32.9501349 20.0025141,32.57383 L20.0025141,23.1446572 Z" id="Fill-3" fill="#FFFFFF"></path>
                        <path d="M32.5467122,29.5546049 C33.8279329,29.4203287 34.2791804,28.8417807 34.2743456,28.1107214 C34.2775688,27.398726 33.8255155,26.912182 32.5467122,27.0464582 L32.5467122,29.5546049 Z M39.4572459,36.2825054 C36.0616082,36.7698782 33.2163313,36.7632473 32.5467122,30.9346658 L32.5467122,37.1436965 C30.7111017,37.3351644 28.8746853,37.4909911 27.0390748,37.6020591 L27.0390748,22.9676116 C29.6127974,22.8117849 32.1873257,22.5672696 34.7618541,22.263076 C37.0180918,21.9936947 38.7682876,23.1449888 38.7658702,25.4881913 L38.7658702,25.988826 C38.7634528,27.5338311 37.4451654,29.4659163 34.9649155,30.4340311 C36.6949663,30.3751817 38.3194575,29.4816648 39.4572459,27.8156453 L39.4572459,36.2825054 Z" id="Fill-5" fill="#FFFFFF"></path>
                        <path d="M48.2004087,25.6845495 C49.8539086,25.4143394 51.5066027,25.1416426 53.1592968,24.8739191 C53.158491,27.9539829 53.158491,31.0340468 53.1592968,34.1141106 C52.1431841,34.2790548 51.1270713,34.4456568 50.1109585,34.6122587 C49.7854157,34.2823703 49.4606786,33.951653 49.1351357,33.6217646 C48.3430352,34.4630629 47.348679,35.2745222 46.1480382,35.4668189 C42.3881792,36.0718907 40.7403199,31.8720297 40.8225115,28.5797763 C40.9079262,22.6749392 44.3567466,20.6980952 48.9111236,19.9438277 C50.1319093,19.7449 51.3293269,19.6321743 52.5291619,19.5816135 L52.5291619,24.0981011 C51.8804935,23.5344726 50.6411744,23.1333018 49.7854157,23.2717223 C48.1383622,23.5427613 46.534016,24.6393502 46.513871,27.8818717 C46.5154826,29.2619325 47.1407828,30.5607646 48.3631801,30.3618369 C49.3591479,30.1985505 49.9707495,29.179046 50.1713935,28.05842 C49.4405336,28.3037641 48.7056448,28.7795329 48.2004087,29.4053263 L48.2004087,25.6845495 Z" id="Fill-7" fill="#FFFFFF"></path>
                        <path d="M54.5039339,19.2628319 C57.4853909,18.7854054 60.466042,18.3328449 63.447499,17.9499091 C63.447499,19.4551287 63.447499,20.9603482 63.447499,22.4655678 C62.7375899,21.8464054 61.5168041,21.5488427 60.2154385,21.5679066 C60.2154385,22.1041825 60.2154385,22.6412873 60.2154385,23.1775632 C60.9430751,23.030854 61.681993,22.7208584 62.0647476,22.2716133 L62.0647476,24.8643043 C61.6795756,24.5194963 60.9454925,24.4109149 60.2154385,24.4946303 C60.2154385,25.0731784 60.2154385,25.6517264 60.2154385,26.2302745 C61.5159983,25.8755201 62.7383957,25.2745927 63.447499,24.4515293 C63.447499,27.162748 63.447499,29.8731379 63.447499,32.5843566 C60.4668478,32.9672924 57.4861967,33.4206818 54.5039339,33.8972794 L54.5039339,19.2628319 Z" id="Fill-9" fill="#FFFFFF"></path>
                        <path d="M70.2992899,24.2603929 C71.5780932,24.1559559 72.0277292,23.6089047 72.0269244,22.8753589 C72.0269244,22.1658501 71.5821222,21.6478092 70.2992899,21.7522462 L70.2992899,24.2603929 Z M77.2098237,31.4889281 C73.8133801,31.551093 70.972938,31.483126 70.2992899,25.6404538 L70.2992899,31.8494846 C68.4628736,32.0019958 66.6272631,32.1942926 64.7908468,32.4164285 L64.7908468,17.781981 C67.3653751,17.4703276 69.9407093,17.2166948 72.5152377,17.0517506 C74.769058,16.9042125 76.5208654,18.2718404 76.5192538,20.6125563 L76.5192538,21.113191 C76.5176422,22.6656559 75.1977431,24.413733 72.7174933,25.2343098 C74.4435151,25.2716087 76.0696178,24.5471804 77.2098237,23.022068 L77.2098237,31.4889281 Z" id="Fill-11" fill="#FFFFFF"></path>
                        <path d="M87.5177679,22.1568983 C88.6547505,23.0819121 89.3034188,24.5597791 89.3058362,26.9203878 C89.3050304,31.4252712 86.9682128,32.0220543 83.2494496,31.8181534 C81.6845876,31.7352669 80.1994998,31.6374608 78.5540578,31.1608632 L78.5540578,23.0073142 C79.4509123,24.3318411 85.4243016,26.6510065 85.3840117,24.6244306 C85.3630609,23.5551943 84.4073831,23.6256478 83.6563782,23.7300849 C83.0238259,23.8386662 82.2542877,24.012728 81.6032019,23.9920063 C79.6136838,23.9314992 78.597571,22.3632858 78.6152986,20.3939016 C78.5508346,16.6142754 80.912632,16.5993558 83.7981989,16.776733 C85.4259132,16.875368 87.0504044,17.1107658 88.6555563,17.4447985 L88.6555563,21.9820077 C87.7603134,20.4436336 81.8231851,17.8700065 81.8473591,20.0689864 C81.8699215,20.8646972 82.3139168,21.1514846 82.8634718,21.1581155 C84.431557,21.1929279 85.8699086,20.9699631 87.5177679,22.1568983" id="Fill-13" fill="#FFFFFF"></path>
                        <path d="M93.9637584,23.8582275 C94.6817254,24.0132253 95.3996925,24.1823138 96.1176596,24.3654931 L96.1176596,22.6505706 C96.1184654,22.2958162 96.0177405,21.120485 95.8533574,20.116729 C96.2328889,21.2431571 96.6132261,22.3737295 96.9927575,23.5076174 C97.3714831,22.5784593 97.7510145,21.6534455 98.1305459,20.7334049 C97.9677745,21.6484723 97.8630206,22.7690983 97.8662438,23.1238527 L97.8662438,24.8379464 C98.5777645,25.0426761 99.2884793,25.2606677 100,25.4944078 L100,19.9957147 C99.2143458,19.7379376 98.4286916,19.4983955 97.6430374,19.2762595 C97.4254716,19.8067334 97.2095175,20.3396938 96.9927575,20.8734832 C96.7759975,20.2228238 96.5592375,19.5721645 96.3424775,18.9239917 C95.5495712,18.719262 94.7566648,18.5311095 93.9637584,18.3595344 C93.9637584,20.1921558 93.9637584,22.0256061 93.9637584,23.8582275 M90.3457201,19.3806966 C90.3449143,18.8162392 90.3449143,18.2517819 90.3457201,17.6873246 C91.3231545,17.8365203 92.7026827,18.0893243 93.6994562,18.3031715 C93.6994562,18.8676289 93.6994562,19.4320862 93.6994562,19.9965436 C93.535879,19.8158509 93.3328176,19.6484201 93.0902721,19.5149728 C93.2925277,20.3711907 93.4351541,21.8018124 93.4351541,22.2618327 L93.4351541,23.7463306 C92.9605384,23.6476956 92.4867285,23.5548627 92.0129186,23.4686607 C91.5447493,23.3832876 91.0781915,23.3028876 90.6100222,23.2274609 L90.6100222,21.742963 C90.6132454,21.2829427 90.7276689,19.9020529 90.9347593,19.119604 C90.6906021,19.1643627 90.4883465,19.2563668 90.3457201,19.3806966" id="Fill-15" fill="#FFFFFF"></path>
                        <path d="M20.9326481,14.0520867 C20.5490877,15.2614013 19.8561004,17.8109913 21.1768052,17.8151356 C22.0067784,17.8151356 22.6836497,16.3803696 22.9850186,15.6219577 C23.1461784,15.201723 23.1888858,14.9281974 23.3911414,14.9232242 C23.4741387,14.9215665 23.5740578,14.9389727 23.6973451,15.0193726 C25.0172441,15.7321968 25.3443986,16.6729591 25.0792906,17.7728635 C24.5909763,19.6626766 21.9302275,20.5802306 20.2622232,20.5288409 C17.6393469,20.4699915 16.8279071,18.3439517 17.253369,15.9916317 C17.719121,12.8079597 20.2453014,5.99219953 24.0833229,5.85129241 C26.0148235,5.79078523 27.8238426,6.93959268 26.9487447,9.52482386 C26.7061992,10.2915244 26.2178849,11.5936719 26.1759833,12.3479394 C26.1381108,12.9985988 26.2372241,13.0980626 25.6683298,13.1884089 C22.4983159,13.6301942 23.1896916,11.2811896 23.71749,9.31180545 C23.8375541,8.8484697 23.7803424,8.68269661 23.6159593,8.68684094 C22.6401365,8.71750896 21.197756,13.219077 20.9326481,14.0520867" id="Fill-17" fill="#FFFFFF"></path>
                        <path d="M30.3453494,17.3641499 C31.727295,17.2423067 32.7635527,13.7229442 33.1100464,12.597345 C33.7804713,10.392563 34.3292205,7.77997931 33.2115771,7.90348025 C32.0729828,8.02532347 31.727295,9.77008513 32.1946585,10.2052395 C32.2341427,10.2433673 32.2575109,10.2839817 32.2357543,10.3270827 C32.2188325,11.144344 31.5218162,11.5712096 30.792568,11.5115313 C30.4041728,12.6147512 28.5588926,17.5150034 30.3453494,17.3641499 M26.3413333,18.3397245 C25.5089428,15.374873 27.7659862,9.01167329 29.4718631,7.96647402 C30.3260102,6.03936197 32.0141595,5.32322226 33.8014221,5.12015024 C36.971436,4.75379173 37.7433916,6.65272236 37.2558831,9.50567707 C36.5653132,13.681501 34.1454983,19.7338761 29.5733938,20.1466511 C28.007726,20.2751252 26.7877461,19.9659584 26.3413333,18.3397245" id="Fill-19" fill="#FFFFFF"></path>
                        <path d="M43.1118675,14.9732048 C44.7967936,14.7121122 45.8354687,16.172573 45.4905867,17.8385925 C45.4494909,18.0549264 45.3302326,18.1378129 45.1851888,18.1593634 C45.0852697,18.1759407 44.959565,18.174283 44.8596459,18.1278665 C44.2907517,17.9877883 43.6001818,18.0118254 42.8475654,18.1286954 C41.1827843,18.3864725 39.2488662,19.0644844 37.8072915,19.2576101 C36.7508888,19.4001749 36.3866676,18.3350829 36.3238152,17.4249887 C36.3012529,17.0926136 36.3044761,16.9467333 36.4253459,16.5961233 C37.4817486,13.2408761 38.1529794,9.3651015 39.0474164,6.02062961 C39.3318636,4.93647366 40.5115535,4.22364942 41.6082462,4.05870521 C42.0377372,3.99488257 42.4631992,4.01477534 42.8072754,4.14905153 C43.1312067,4.26592156 43.0320934,4.57425948 42.8475654,4.83286549 C42.6638431,5.09230036 41.063526,12.0887532 40.2061557,15.5973404 C41.2206568,15.409188 42.0554648,15.1373201 43.1118675,14.9732048" id="Fill-21" fill="#FFFFFF"></path>
                        <path d="M54.0282707,5.84897158 C53.4577648,7.42547358 52.5842785,9.55234219 51.7929837,11.4595615 C52.3828287,10.9862793 53.1330278,10.6348404 53.8654992,10.495591 C54.0081257,8.59085833 54.0903172,6.71679366 54.0282707,5.84897158 M46.2241056,17.6163737 C45.7567421,17.5235407 45.8800294,17.2342667 46.10243,16.7999413 C47.2200734,14.5114439 50.8961293,6.83780801 52.0161901,4.18958305 C52.2821038,3.56047421 52.5633278,3.11703122 52.9106272,2.78962939 C53.6011971,2.15388963 54.8397104,1.91351866 55.6745184,1.8240012 C56.2675866,1.77261155 56.1805603,2.28816582 56.2031226,2.78631393 C56.3054591,6.5120639 57.0967539,10.3397643 57.016174,14.0539102 C56.9557391,16.259521 55.3908771,16.4783415 53.4593764,16.7916526 C52.8501923,16.8894587 52.9106272,16.3374344 53.0532537,15.9163707 C53.2571208,15.3602021 53.4384257,14.3274358 53.6020029,13.1098325 C52.6874208,13.1322119 51.8099055,13.5043724 51.5085366,14.0771184 C51.4078117,14.2619554 51.3433478,14.3133451 51.1829938,14.3191471 C51.0210281,14.3241203 50.8381117,14.2511801 50.7357752,13.9950607 C50.1088635,15.5193442 49.7800974,17.3710295 47.9315941,17.6951159 C47.3626999,17.7879488 46.7744665,17.7365592 46.2241056,17.6163737" id="Fill-23" fill="#FFFFFF"></path>
                        <path d="M60.068219,3.08213599 C60.1214017,2.84425162 60.1770018,2.60636725 60.2309904,2.36848288 C60.5581449,1.35975369 61.1850566,0.956925105 61.7547566,0.879840622 C62.4662773,0.782034505 63.1157514,1.2205043 63.0150265,1.60924217 C62.9118842,2.04190991 62.8135767,2.47291992 62.6894837,2.90724539 C62.4888397,3.7502015 62.2011694,5.06146657 61.3075381,5.43611373 C60.9231719,5.59442702 60.3325211,5.67648469 60.4139068,5.08135934 C60.4759533,4.71748743 60.5347767,4.39340105 60.5968232,3.9681931 C60.1907004,3.81568187 59.9465433,3.56039133 60.068219,3.08213599" id="Fill-25" fill="#FFFFFF"></path>
                        <g id="Group-29" transform="translate(62.179896, 0.000000)">
                            <mask id="mask-2" fill="white">
                                <use xlink:href="#path-1"></use>
                            </mask>
                            <g id="Clip-28"></g>
                            <path d="M0.267606312,12.409607 C0.409426967,12.3905431 0.590731781,12.4087781 0.856645509,12.4154091 C2.25793028,12.3996606 4.39329809,11.7415415 6.46581357,10.8770349 C6.74945488,10.7659669 6.66887496,10.6059959 6.44566859,10.6068248 C4.04519285,10.4733774 0.81716135,8.88610018 2.11610962,5.77453947 C3.31675039,2.92904455 5.14510872,0.223627885 7.44163637,0.0197269965 C9.37394279,-0.174227507 11.1821561,1.023483 10.307864,3.60539872 C10.0653185,4.35303531 9.57539259,5.66181378 9.53510263,6.43846066 C9.49642427,7.06922723 9.59714917,7.18609725 9.02744915,7.27064152 C5.85582359,7.84338751 6.54961668,5.50350049 7.07660935,3.48106891 C7.19667342,3.03182386 7.13785008,2.84864461 6.97427285,2.86356419 C6.36589447,2.9182693 5.48999077,5.03519153 5.30788015,5.5151046 C4.31110657,8.0257379 9.25226712,8.72861576 9.53510263,9.88819845 C9.78087138,10.8960988 9.67934068,11.8824486 8.76314702,12.600246 C7.33768828,13.7092679 4.92351395,14.8845991 2.99120753,15.1183391 C1.32481483,15.3156091 0.0250607603,14.8058569 0.00330418251,12.883718 C-0.0184523952,12.5306213 0.0669623174,12.4361307 0.267606312,12.409607" id="Fill-27" fill="#FFFFFF" mask="url(#mask-2)"></path>
                        </g>
                    </g>
                </g>
            </g>
        </g>
    </g>
</svg>